# xmcd CD database file
#
# Track frame offsets:
#	182
#	20685
#	41687
#	59275
#	87995
#	108685
#	132825
#	148712
#	172142
#	199127
#
# Disc length: 3084 seconds
#
# Revision: 0
# Processed by: cddbd v1.4PL0 Copyright (c) Steve Scherf et al.
# Submitted via: CDex 1.40Beta8
#
DISCID=950c0a0a
DTITLE=Robben Ford and The Blue Line - Mystic Mile
DYEAR=1993
DGENRE=Blues
TTITLE0=He Don't Play Nothin' But The Blues
TTITLE1=Busted Up
TTITLE2=Politician
TTITLE3=Worried Life Blues
TTITLE4=Misdirected Blues
TTITLE5=Moth To A Flame
TTITLE6=Trying To Do The Right Thing
TTITLE7=Say What's On Your Mind
TTITLE8=The Plunge
TTITLE9=Mystic Mile
EXTD=YEAR: 1993 ID3G: 0
EXTT0=
EXTT1=
EXTT2=
EXTT3=
EXTT4=
EXTT5=
EXTT6=
EXTT7=
EXTT8=
EXTT9=
PLAYORDER=
